<svg id="Layer_1" viewBox="0 0 512 512" xmlns="http://www.w3.org/2000/svg">
    <title>tick</title>
    <path style="fill:#D50A30;" class="cls-1" d="M256,512a257.62,257.62,0,0,1-51.59-5.2A255.92,255.92,0,0,1,5.2,307.59a258.64,258.64,0,0,1,0-103.18A255.92,255.92,0,0,1,204.41,5.2a258.64,258.64,0,0,1,103.18,0A255.92,255.92,0,0,1,506.8,204.41a258.27,258.27,0,0,1,0,103.18A255.92,255.92,0,0,1,307.59,506.8,257.62,257.62,0,0,1,256,512ZM129.24,250.69l-24.06,24.06L201.41,371,407.62,164.77l-24.05-24.06L201.41,322.87l-72.18-72.18Z"
        id="Subtraction_1" />
</svg>